<svg width="25" height="25" viewBox="0 0 25 25" fill="none" xmlns="http://www.w3.org/2000/svg">
<path d="M13.8402 20.1269C6.63469 17.2423 4.62964 9.71806 4.62964 5.53053C4.62964 4.80981 5.21443 4.62963 5.50683 4.62963H8.13841C8.84017 4.62963 9.0156 5.23023 9.0156 5.53053C9.0156 5.53053 9.0156 8.26518 9.0156 9.4026C9.0156 10.54 6.63868 12.3161 6.05389 12.2873M13.8402 20.1269C15.6774 20.8624 17.8527 21.2963 20.4191 21.2963C20.7115 21.2963 21.2963 21.1161 21.2963 20.3954C21.2963 19.6747 21.2963 18.5936 21.2963 18.1431C21.2963 17.8428 21.1209 17.2422 20.4191 17.2422C19.7174 17.2422 17.7875 17.2422 16.9103 17.2422C16.3255 17.2134 14.8928 17.75 13.8402 20.1269Z" stroke="#868686" stroke-width="1.5"/>
</svg>
